<?xml version="1.0" encoding="UTF-8" standalone="no"?>
<!-- Created with Inkscape (http://www.inkscape.org/) -->

<svg
   xmlns:dc="http://purl.org/dc/elements/1.1/"
   xmlns:cc="http://creativecommons.org/ns#"
   xmlns:rdf="http://www.w3.org/1999/02/22-rdf-syntax-ns#"
   xmlns:svg="http://www.w3.org/2000/svg"
   xmlns="http://www.w3.org/2000/svg"
   xmlns:sodipodi="http://sodipodi.sourceforge.net/DTD/sodipodi-0.dtd"
   xmlns:inkscape="http://www.inkscape.org/namespaces/inkscape"
   width="1024"
   height="1024"
   id="svg2"
   version="1.1"
   inkscape:version="0.48.2 r9819"
   sodipodi:docname="icon.svg"
   inkscape:export-filename="/Users/shahab/Documents/Work_Directories/git/barion/rsrc/icon.png"
   inkscape:export-xdpi="90"
   inkscape:export-ydpi="90">
  <defs
     id="defs4" />
  <sodipodi:namedview
     id="base"
     pagecolor="#ffffff"
     bordercolor="#666666"
     borderopacity="1.0"
     inkscape:pageopacity="0"
     inkscape:pageshadow="2"
     inkscape:zoom="0.6380761"
     inkscape:cx="510.46517"
     inkscape:cy="508.86811"
     inkscape:document-units="px"
     inkscape:current-layer="layer1"
     showgrid="true"
     inkscape:window-width="1440"
     inkscape:window-height="856"
     inkscape:window-x="39"
     inkscape:window-y="29"
     inkscape:window-maximized="0">
    <inkscape:grid
       type="xygrid"
       id="grid2985"
       empspacing="5"
       visible="true"
       enabled="true"
       snapvisiblegridlinesonly="true" />
  </sodipodi:namedview>
  <metadata
     id="metadata7">
    <rdf:RDF>
      <cc:Work
         rdf:about="">
        <dc:format>image/svg+xml</dc:format>
        <dc:type
           rdf:resource="http://purl.org/dc/dcmitype/StillImage" />
        <dc:title></dc:title>
      </cc:Work>
    </rdf:RDF>
  </metadata>
  <g
     inkscape:label="Layer 1"
     inkscape:groupmode="layer"
     id="layer1"
     transform="translate(0,-28.362183)">
    <path
       sodipodi:type="arc"
       style="fill:#ff4400;fill-opacity:1;stroke:none"
       id="path3791"
       sodipodi:cx="120"
       sodipodi:cy="604"
       sodipodi:rx="20"
       sodipodi:ry="20"
       d="m 100.00163,604.25527 c -0.140983,-11.0448 8.6983,-20.11266 19.7431,-20.25364 11.0448,-0.14098 20.11266,8.6983 20.25364,19.7431 0.14098,11.0448 -8.6983,20.11266 -19.7431,20.25364 -10.82321,0.13815 -19.79224,-8.35931 -20.23828,-19.1742"
       transform="matrix(4.437339,0,0,4.437339,-15.895844,-2136.7743)"
       sodipodi:start="3.1288288"
       sodipodi:end="9.3835579"
       sodipodi:open="true" />
    <path
       sodipodi:type="arc"
       style="fill:none;stroke:#00781d;stroke-width:5;stroke-miterlimit:4;stroke-opacity:1;stroke-dasharray:none;stroke-dashoffset:0"
       id="path2987"
       sodipodi:cx="340"
       sodipodi:cy="564"
       sodipodi:rx="99.958023"
       sodipodi:ry="420"
       d="m 240.04362,561.59453 c 0.31617,-231.95579 45.32448,-418.91615 100.52887,-417.58764 55.20439,1.3285 99.70007,190.44279 99.38389,422.39858 -0.31617,231.95579 -45.32448,418.91615 -100.52887,417.58764 -55.203,-1.32847 -99.69812,-190.43363 -99.38391,-422.38363"
       transform="matrix(1.1832904,0,0,1.1832904,114.21643,-123.88171)"
       sodipodi:start="3.14732"
       sodipodi:end="9.4304697"
       sodipodi:open="true" />
    <path
       sodipodi:end="9.430444"
       sodipodi:start="3.14732"
       transform="matrix(0.5916452,1.0247595,-1.0247595,0.5916452,893.34046,-140.97938)"
       d="m 240.00164,561.59453 c 0.31631,-231.95579 45.34352,-418.91615 100.57109,-417.58764 55.22757,1.3285 99.74194,190.44279 99.42563,422.39858 -0.31631,231.95579 -45.34352,418.91615 -100.57109,417.58764 -55.22518,-1.32845 -99.73858,-190.42702 -99.42566,-422.37283"
       sodipodi:ry="420"
       sodipodi:rx="100"
       sodipodi:cy="564"
       sodipodi:cx="340"
       id="path3757"
       style="fill:none;stroke:#6f4700;stroke-width:4.99961817999999969;stroke-miterlimit:4;stroke-opacity:1;stroke-dasharray:none;stroke-dashoffset:0"
       sodipodi:type="arc"
       sodipodi:open="true" />
    <path
       sodipodi:end="9.4304599"
       sodipodi:start="3.14732"
       transform="matrix(0.5916452,-1.0247595,1.0247595,0.5916452,-262.5881,555.85871)"
       d="m 240.00164,561.59453 c 0.31631,-231.95579 45.34352,-418.91615 100.57109,-417.58764 55.22757,1.3285 99.74194,190.44279 99.42563,422.39858 C 439.68205,798.36126 394.65484,985.32162 339.42727,983.99311 284.20147,982.66465 239.68782,793.562 240.00161,561.6136"
       sodipodi:ry="420"
       sodipodi:rx="100"
       sodipodi:cy="564"
       sodipodi:cx="340"
       id="path3759"
       style="fill:none;stroke:#0000ff;stroke-width:5;stroke-miterlimit:4;stroke-opacity:1;stroke-dasharray:none;stroke-dashoffset:0"
       sodipodi:type="arc"
       sodipodi:open="true" />
    <path
       style="fill:none;stroke:#000000;stroke-width:7.11392736;stroke-linecap:butt;stroke-linejoin:miter;stroke-miterlimit:4;stroke-opacity:1;stroke-dasharray:none"
       d="m 457.42032,561.44317 c 17.74935,11.8329 35.49871,0 35.49871,0"
       id="path3765"
       inkscape:connector-curvature="0" />
    <path
       style="fill:none;stroke:#000000;stroke-width:4.74261808;stroke-linecap:butt;stroke-linejoin:miter;stroke-miterlimit:4;stroke-opacity:1;stroke-dasharray:none"
       d="m 463.33677,561.44317 c 11.8329,-65.08098 11.8329,-65.08098 11.8329,-65.08098"
       id="path3767"
       inkscape:connector-curvature="0" />
    <path
       style="fill:none;stroke:#000000;stroke-width:4.74261808;stroke-linecap:butt;stroke-linejoin:miter;stroke-miterlimit:4;stroke-opacity:1;stroke-dasharray:none"
       d="M 487.00258,561.44317 C 475.16967,496.36219 475.16967,496.36219 475.16967,496.36219"
       id="path3769"
       inkscape:connector-curvature="0" />
    <path
       inkscape:connector-curvature="0"
       id="path3771"
       d="m 540.25064,561.44315 c 17.74936,11.83291 35.49872,0 35.49872,0"
       style="fill:none;stroke:#000000;stroke-width:7.11392736;stroke-linecap:butt;stroke-linejoin:miter;stroke-miterlimit:4;stroke-opacity:1;stroke-dasharray:none" />
    <path
       inkscape:connector-curvature="0"
       id="path3773"
       d="M 546.1671,561.44315 C 558,496.36218 558,496.36218 558,496.36218"
       style="fill:none;stroke:#000000;stroke-width:4.74261808;stroke-linecap:butt;stroke-linejoin:miter;stroke-miterlimit:4;stroke-opacity:1;stroke-dasharray:none" />
    <path
       inkscape:connector-curvature="0"
       id="path3775"
       d="M 569.8329,561.44315 C 558,496.36218 558,496.36218 558,496.36218"
       style="fill:none;stroke:#000000;stroke-width:4.74261808;stroke-linecap:butt;stroke-linejoin:miter;stroke-miterlimit:4;stroke-opacity:1;stroke-dasharray:none" />
    <path
       style="fill:none;stroke:#000000;stroke-width:4.74261808;stroke-linecap:butt;stroke-linejoin:miter;stroke-miterlimit:4;stroke-opacity:1;stroke-dasharray:none"
       d="m 463.33677,496.36219 c 106.49613,0 106.49613,0 106.49613,0"
       id="path3777"
       inkscape:connector-curvature="0" />
    <path
       style="fill:none;stroke:#000000;stroke-width:4.88857889;stroke-linecap:butt;stroke-linejoin:miter;stroke-miterlimit:4;stroke-opacity:1;stroke-dasharray:none"
       d="m 516.58484,490.44573 c 0,100.5797 0,100.5797 0,100.5797"
       id="path3779"
       inkscape:connector-curvature="0" />
    <path
       style="fill:none;stroke:#000000;stroke-width:4.74261808;stroke-linecap:butt;stroke-linejoin:miter;stroke-miterlimit:4;stroke-opacity:1;stroke-dasharray:none"
       d="m 504.75193,591.02543 c 23.66581,0 23.66581,0 23.66581,0"
       id="path3781"
       inkscape:connector-curvature="0" />
    <path
       sodipodi:type="arc"
       style="fill:#ff7f00;fill-opacity:1;stroke:none"
       id="path3785"
       sodipodi:cx="120"
       sodipodi:cy="604"
       sodipodi:rx="20"
       sodipodi:ry="20"
       d="m 100.00163,604.25527 c -0.140983,-11.0448 8.6983,-20.11266 19.7431,-20.25364 11.0448,-0.14098 20.11266,8.6983 20.25364,19.7431 0.14098,11.0448 -8.6983,20.11266 -19.7431,20.25364 -10.82321,0.13815 -19.79224,-8.35931 -20.23828,-19.1742"
       transform="matrix(1.1832904,0,0,1.1832904,-51.394556,-419.50459)"
       sodipodi:start="3.1288288"
       sodipodi:end="9.3835579"
       sodipodi:open="true" />
    <path
       sodipodi:open="true"
       sodipodi:end="9.3835579"
       sodipodi:start="3.1288288"
       transform="matrix(1.1832904,0,0,1.1832904,327.25837,-17.185847)"
       d="m 100.00163,604.25527 c -0.140983,-11.0448 8.6983,-20.11266 19.7431,-20.25364 11.0448,-0.14098 20.11266,8.6983 20.25364,19.7431 0.14098,11.0448 -8.6983,20.11266 -19.7431,20.25364 -10.82321,0.13815 -19.79224,-8.35931 -20.23828,-19.1742"
       sodipodi:ry="20"
       sodipodi:rx="20"
       sodipodi:cy="604"
       sodipodi:cx="120"
       id="path3787"
       style="fill:#ff7f00;fill-opacity:1;stroke:none"
       sodipodi:type="arc" />
    <path
       sodipodi:type="arc"
       style="fill:#ff7f00;fill-opacity:1;stroke:none"
       id="path3789"
       sodipodi:cx="120"
       sodipodi:cy="604"
       sodipodi:rx="20"
       sodipodi:ry="20"
       d="m 100.00163,604.25527 a 20,20 0 1 1 0.0154,0.5689"
       transform="matrix(1.1832904,0,0,1.1832904,465.25322,-490.50201)"
       sodipodi:start="3.1288288"
       sodipodi:end="9.3835579"
       sodipodi:open="true" />
  </g>
</svg>
